<?xml version="1.0" standalone="no"?>
<!DOCTYPE svg PUBLIC "-//W3C//DTD SVG 20010904//EN"
 "http://www.w3.org/TR/2001/REC-SVG-20010904/DTD/svg10.dtd">
<svg version="1.0" xmlns="http://www.w3.org/2000/svg"
 width="771.000000pt" height="677.000000pt" viewBox="0 0 771.000000 677.000000"
 preserveAspectRatio="xMidYMid meet">

<g transform="translate(0.000000,677.000000) scale(0.100000,-0.100000)"
fill="#000000" stroke="none">
<path d="M3865 6736 c-118 -30 -249 -121 -411 -287 -102 -106 -237 -264 -331
-388 -45 -59 -48 -67 -34 -89 6 -10 30 12 87 80 509 607 710 714 1022 547 63
-33 82 -39 136 -39 225 0 384 -177 526 -585 80 -229 103 -366 104 -610 1 -213
-7 -286 -49 -430 -67 -229 -163 -353 -340 -439 -71 -35 -137 -58 -396 -140
-81 -26 -155 -53 -165 -61 -12 -9 0 -7 34 5 28 11 85 29 125 39 l72 20 -29
-22 c-16 -12 -38 -30 -50 -41 -21 -18 -20 -18 9 0 17 10 50 30 75 46 25 15 97
43 160 62 204 62 317 125 395 224 35 44 53 56 150 97 136 58 313 117 425 141
116 25 322 25 404 0 313 -94 603 -438 682 -806 27 -130 12 -231 -46 -297 -37
-41 -37 -45 5 -198 77 -287 -5 -534 -234 -703 -278 -207 -720 -325 -1211 -323
-439 1 -613 90 -857 436 -51 72 -107 144 -125 160 l-32 30 36 -45 c19 -25 77
-108 129 -185 148 -221 263 -318 455 -383 64 -22 219 -52 268 -52 64 0 9 -13
-160 -37 -99 -14 -180 -26 -182 -28 -1 -1 9 -49 23 -106 64 -265 54 -506 -31
-751 -43 -123 -69 -177 -141 -287 -164 -252 -411 -479 -641 -589 -85 -41 -110
-40 -247 3 l-88 28 -91 -23 c-168 -41 -394 -37 -569 11 -115 32 -203 84 -287
168 -114 115 -173 243 -201 440 -15 105 -6 395 16 536 32 205 104 465 192 690
39 101 189 411 253 523 70 123 35 79 -49 -62 -148 -249 -275 -524 -354 -771
-114 -356 -154 -772 -100 -1035 33 -159 123 -324 231 -420 66 -58 205 -131
307 -160 151 -44 401 -46 545 -4 95 27 107 27 216 -1 75 -19 118 -25 147 -21
59 10 199 86 304 166 51 38 96 70 101 70 4 0 25 -29 45 -64 21 -35 71 -112
113 -171 42 -60 109 -175 149 -255 41 -81 81 -150 90 -154 22 -8 52 9 60 34 4
11 0 37 -7 58 -18 51 -15 399 5 562 16 133 12 213 -18 380 -9 47 -19 99 -22
117 -5 31 1 50 64 205 9 21 19 35 23 33 4 -3 45 -67 90 -142 242 -401 489
-706 705 -867 39 -28 217 -144 397 -256 180 -113 347 -217 370 -232 134 -84
104 -77 346 -74 120 1 223 5 229 9 13 8 8 28 -37 172 -47 150 -88 315 -110
446 -46 274 -151 495 -334 704 -140 162 -276 259 -546 393 -215 107 -216 109
-40 93 228 -20 613 0 850 44 515 98 962 350 1169 659 66 97 73 138 34 182 -44
50 -370 232 -524 292 -173 69 -365 91 -592 68 l-88 -8 24 63 c36 97 51 190 44
288 -6 82 -26 192 -47 246 -8 21 -5 33 14 63 45 68 59 134 53 235 -17 264
-197 586 -431 775 -136 109 -269 171 -420 193 -170 25 -432 -34 -714 -160
-128 -58 -128 -58 -82 43 29 65 65 173 75 225 60 304 43 623 -50 921 -109 349
-221 538 -373 627 -58 34 -163 63 -230 63 -38 0 -68 8 -111 30 -125 63 -250
82 -356 56z"/>
<path d="M1237 6495 c-96 -26 -150 -61 -233 -151 -216 -235 -337 -521 -360
-851 -5 -77 -3 -107 6 -118 16 -20 70 -16 70 5 0 63 35 287 59 381 47 179 97
289 211 459 101 150 191 212 337 233 202 28 496 -62 781 -239 64 -40 118 -71
120 -70 20 20 -137 128 -323 221 -128 65 -241 106 -356 130 -85 18 -246 18
-312 0z"/>
<path d="M3357 5933 c-17 -16 -5 -64 24 -97 l31 -35 -5 -128 c-2 -71 -10 -182
-17 -248 -13 -121 -18 -154 -108 -680 -28 -159 -62 -364 -77 -455 -15 -91 -31
-185 -36 -210 -4 -25 -8 -65 -8 -89 -1 -43 -1 -44 19 -26 11 10 20 27 20 38 0
10 11 65 25 121 27 111 105 514 130 671 9 55 30 169 46 253 16 85 34 197 39
250 6 54 17 151 26 217 12 90 13 141 6 205 -5 54 -5 91 1 101 12 19 -24 93
-52 109 -22 11 -54 13 -64 3z"/>
<path d="M4336 5454 c-33 -33 -8 -104 37 -104 24 0 50 45 43 73 -3 13 -17 29
-31 35 -32 15 -30 15 -49 -4z"/>
<path d="M4213 5177 c-102 -125 -423 -631 -563 -887 -163 -298 -206 -389 -196
-415 12 -31 43 4 95 106 89 174 235 428 328 574 187 292 281 442 310 495 36
63 86 180 80 186 -2 2 -26 -24 -54 -59z"/>
<path d="M1535 5123 c-30 -8 -45 -23 -45 -47 0 -27 39 -66 66 -66 11 0 67 -31
125 -69 117 -77 149 -110 310 -326 166 -222 378 -418 682 -631 130 -92 164
-112 230 -138 29 -12 37 -20 37 -40 0 -21 10 -31 63 -57 34 -17 70 -38 79 -46
16 -14 18 -14 24 0 9 25 -1 33 -76 62 -67 26 -70 28 -70 60 0 18 -3 48 -7 66
l-6 34 42 -50 c42 -51 61 -61 69 -37 4 13 -76 98 -111 117 -10 6 -20 26 -23
45 l-6 35 57 -62 c59 -66 74 -73 95 -48 14 17 3 38 -61 115 -46 57 -93 139
-120 216 -18 49 -23 88 -27 229 l-4 169 -18 -34 c-29 -58 -42 -139 -39 -243 2
-53 3 -97 2 -97 -5 0 -71 148 -128 290 -68 167 -136 314 -184 397 -18 30 -27
54 -21 58 6 3 10 22 10 41 l0 35 -52 -7 c-54 -6 -78 -24 -78 -55 0 -18 19 -29
50 -29 11 0 23 -13 31 -32 7 -18 38 -89 69 -158 32 -69 85 -195 120 -280 75
-187 100 -238 186 -376 l66 -107 -79 63 c-43 35 -128 115 -189 178 l-111 115
16 28 c15 27 15 29 -15 71 -38 55 -78 64 -95 21 -14 -37 -3 -88 24 -110 12
-10 28 -29 35 -43 30 -58 169 -200 275 -281 114 -87 150 -128 181 -209 l18
-45 -29 26 c-15 14 -98 79 -183 144 -362 277 -516 422 -693 651 -137 178 -216
255 -329 322 -58 34 -84 55 -89 73 -6 26 -39 70 -49 68 -3 -1 -14 -4 -25 -6z"/>
<path d="M2846 5091 c-8 -13 -2 -52 34 -201 19 -79 28 -144 28 -210 1 -52 5
-107 9 -122 5 -16 7 34 6 115 -1 117 -7 167 -32 281 -17 77 -33 141 -35 143
-2 2 -7 0 -10 -6z"/>
<path d="M733 5050 c-29 -12 -29 -30 3 -121 107 -307 317 -598 546 -756 143
-99 350 -192 458 -207 37 -4 26 2 -55 33 -316 121 -518 278 -687 531 -72 109
-162 299 -199 423 -18 59 -35 107 -39 106 -3 0 -15 -4 -27 -9z"/>
<path d="M3500 4571 c-20 -38 -11 -93 17 -102 14 -5 -106 -259 -158 -336 -44
-64 -139 -164 -150 -157 -5 3 -9 -8 -9 -24 0 -26 3 -28 30 -24 90 13 257 247
319 446 25 82 28 178 5 200 -21 21 -41 20 -54 -3z"/>
<path d="M5050 4413 c-19 -10 -41 -30 -48 -45 -7 -14 -36 -48 -65 -75 -187
-169 -567 -278 -1060 -303 -203 -11 -237 -15 -237 -29 0 -48 389 -40 681 14
269 50 511 150 629 261 41 38 47 41 65 28 30 -22 61 -17 90 17 22 27 26 39 23
88 -3 65 -19 74 -78 44z"/>
<path d="M3059 4355 c-22 -49 -17 -224 10 -325 12 -47 27 -102 32 -122 8 -31
14 -38 34 -38 33 0 33 18 -5 171 -16 66 -32 162 -36 213 -4 50 -10 100 -14
111 -7 18 -9 17 -21 -10z"/>
<path d="M3603 4338 c-57 -63 -139 -219 -191 -363 -29 -80 -31 -115 -8 -115
16 0 32 34 110 234 35 90 76 186 90 214 29 58 29 62 -1 30z"/>
<path d="M2976 4342 c-14 -23 27 -212 46 -212 6 0 7 10 4 23 -4 12 -11 49 -17
82 -18 100 -24 121 -33 107z"/>
<path d="M2062 4258 c-18 -18 -15 -113 4 -132 20 -20 26 -20 56 3 24 19 24 19
79 -14 29 -19 118 -60 196 -91 78 -31 140 -60 138 -64 -7 -12 24 -34 115 -85
47 -25 72 -43 55 -39 -143 35 -178 35 -173 1 5 -31 302 -116 407 -117 41 0 72
2 69 5 -2 3 -52 23 -109 45 l-104 39 53 1 c37 0 52 4 52 14 0 10 -18 15 -62
18 -62 4 -180 49 -239 90 -24 18 -24 18 19 11 110 -15 -20 72 -224 151 -134
51 -244 107 -244 122 0 20 -37 54 -58 54 -10 0 -23 -5 -30 -12z"/>
<path d="M3277 4166 c-18 -27 -47 -100 -47 -117 0 -5 6 -9 14 -9 17 0 58 103
54 134 -3 19 -5 18 -21 -8z"/>
<path d="M3355 3968 c-16 -12 -26 -16 -21 -8 4 8 -3 2 -16 -15 -13 -16 -31
-38 -40 -47 -10 -10 -15 -18 -12 -18 3 0 -3 -13 -12 -30 -30 -50 -4 -48 43 5
67 75 95 113 91 125 -2 7 -15 2 -33 -12z"/>
<path d="M3592 3926 c-10 -23 -8 -24 62 -45 41 -12 91 -24 112 -26 l39 -5 -45
21 c-24 12 -70 27 -102 33 -48 9 -57 13 -52 28 8 26 -1 22 -14 -6z"/>
<path d="M1898 3923 c7 -3 16 -2 19 1 4 3 -2 6 -13 5 -11 0 -14 -3 -6 -6z"/>
<path d="M1969 3905 c25 -8 61 -17 80 -20 35 -5 35 -5 -6 9 -23 7 -59 16 -80
19 -38 6 -38 6 6 -8z"/>
<path d="M4200 3883 c-18 -21 -51 -38 -113 -58 l-89 -28 -191 12 c-162 10
-221 15 -246 20 -2 1 2 8 9 16 17 20 0 19 -30 -2 l-24 -17 23 34 c23 33 21 32
-22 -10 -47 -44 -58 -58 -34 -43 6 4 1 -6 -13 -23 -14 -17 -42 -41 -62 -54
-42 -27 -50 -46 -15 -35 12 3 32 9 45 12 25 6 76 50 84 73 4 12 9 12 40 -3 78
-37 164 -48 338 -45 162 3 167 4 230 34 52 25 74 30 111 27 34 -4 50 0 62 12
37 36 11 89 -49 100 -23 5 -34 1 -54 -22z"/>
<path d="M3196 3843 c3 -32 7 -59 8 -59 0 -1 12 -5 26 -8 21 -6 22 -5 8 4 -11
7 -18 23 -18 43 0 42 -10 77 -22 77 -6 0 -7 -23 -2 -57z"/>
<path d="M3342 3868 c-7 -7 -13 -23 -13 -37 -1 -25 -2 -24 -9 4 -6 25 -8 20
-8 -25 0 -35 2 -48 7 -36 7 18 8 18 14 3 10 -26 34 -20 70 16 18 17 23 23 10
13 l-23 -19 0 27 c0 29 -16 66 -28 66 -5 0 -13 -5 -20 -12z"/>
<path d="M3067 3824 c-8 -8 16 -56 37 -73 22 -19 66 -6 66 19 0 25 -86 70
-103 54z"/>
<path d="M3020 3796 c0 -2 7 -7 16 -10 8 -3 12 -2 9 4 -6 10 -25 14 -25 6z"/>
<path d="M1400 3779 c-365 -39 -733 -303 -1019 -730 -216 -320 -351 -664 -353
-894 -1 -120 8 -133 157 -233 154 -103 239 -205 351 -420 55 -105 88 -144 154
-177 89 -45 162 -58 310 -52 209 7 400 61 625 175 112 56 278 168 325 218 29
31 22 27 -45 -22 -112 -84 -165 -115 -285 -173 -365 -174 -752 -207 -937 -80
-34 24 -51 47 -84 117 -68 144 -160 290 -224 356 -33 33 -101 89 -151 123 -50
34 -96 69 -104 78 -18 22 -8 168 20 270 143 535 475 1020 860 1259 270 167
568 203 868 105 34 -11 67 -19 74 -17 15 5 -104 50 -192 72 -56 15 -235 38
-265 34 -5 0 -44 -4 -85 -9z"/>
<path d="M3560 3735 c-17 -21 30 -53 150 -101 156 -63 215 -94 350 -184 63
-43 139 -89 167 -103 37 -19 58 -38 75 -69 27 -49 64 -59 83 -22 5 11 18 28
28 38 9 10 17 24 17 31 0 20 -39 43 -80 48 -20 2 -68 26 -115 57 -44 29 -129
86 -190 126 -130 85 -221 126 -367 164 -83 21 -110 24 -118 15z"/>
<path d="M3183 3719 c-3 -11 -11 -18 -19 -15 -7 3 -18 -1 -24 -9 -9 -11 -6
-12 17 -6 21 6 41 1 85 -20 56 -28 108 -38 108 -20 0 13 -68 71 -97 82 -40 15
-64 11 -70 -12z"/>
<path d="M3470 3700 c0 -5 14 -17 31 -26 25 -12 29 -18 18 -25 -11 -7 -8 -9 8
-9 18 0 30 -14 53 -60 32 -63 42 -75 32 -38 -4 16 -2 19 9 12 8 -5 25 -9 39
-10 14 0 34 -4 45 -8 26 -10 -97 105 -154 144 -44 30 -81 39 -81 20z"/>
<path d="M2793 3686 c-119 -20 -97 -28 57 -22 154 7 168 -6 21 -18 -47 -4
-133 -23 -197 -42 -317 -96 -395 -115 -599 -145 -293 -42 -453 -77 -525 -113
-17 -8 -32 -10 -36 -5 -3 5 -18 9 -34 9 -39 0 -49 -36 -24 -80 30 -50 94 -50
94 1 0 11 9 21 23 24 12 3 78 18 147 34 173 41 216 48 365 66 155 19 220 33
385 85 283 88 334 101 418 111 48 5 96 12 107 16 11 3 41 5 67 4 61 -3 128 15
128 34 0 17 -36 20 -75 5 -22 -8 -25 -7 -23 8 2 12 -3 16 -19 15 -15 -2 -23 3
-23 12 0 12 -17 15 -92 14 -51 -1 -125 -7 -165 -13z"/>
<path d="M3208 3653 c6 -2 18 -2 25 0 6 3 1 5 -13 5 -14 0 -19 -2 -12 -5z"/>
<path d="M3420 3641 c0 -33 81 -84 101 -64 11 11 2 23 -42 56 -42 32 -59 34
-59 8z"/>
<path d="M3390 3643 c0 -6 21 -39 46 -74 55 -75 71 -94 54 -59 -21 39 -100
145 -100 133z"/>
<path d="M2108 3633 c6 -2 18 -2 25 0 6 3 1 5 -13 5 -14 0 -19 -2 -12 -5z"/>
<path d="M3157 3593 c-11 -17 8 -30 54 -37 39 -6 46 -10 42 -25 -5 -19 29 -95
47 -106 5 -3 10 -18 10 -31 0 -14 25 -78 55 -141 65 -137 97 -233 120 -363 22
-122 31 -138 40 -76 10 67 0 187 -24 271 -20 70 -133 319 -149 329 -5 3 -12
23 -16 45 -3 21 -14 49 -25 62 -17 22 -17 24 -2 36 13 9 14 14 3 25 -14 15
-147 24 -155 11z"/>
<path d="M3364 3579 c4 -13 10 -33 13 -44 6 -18 4 -18 -10 -6 -15 12 -16 11
-8 -15 5 -16 12 -49 16 -74 3 -25 10 -52 16 -60 9 -13 10 -13 6 2 -3 9 -8 34
-11 55 l-6 38 17 -45 c9 -25 18 -39 21 -32 8 25 21 11 37 -40 15 -46 73 -162
205 -413 20 -38 50 -99 66 -135 15 -36 41 -87 58 -115 16 -27 46 -90 66 -140
21 -49 54 -130 75 -179 21 -49 40 -108 43 -130 6 -52 17 -66 53 -66 27 0 29 3
29 40 0 38 -20 72 -49 81 -6 2 -33 76 -60 164 -42 136 -72 203 -191 440 -262
521 -281 555 -316 555 -6 0 -15 7 -18 16 -13 33 -5 37 22 12 39 -36 89 -67 77
-48 -20 34 -90 112 -123 137 l-35 26 7 -24z"/>
<path d="M2873 3565 c-18 -8 -33 -15 -33 -17 0 -5 161 2 188 8 12 2 22 9 22
14 0 15 -141 11 -177 -5z"/>
<path d="M3070 3549 l-35 -30 40 27 c22 16 42 29 44 31 2 2 0 3 -5 3 -5 0 -25
-14 -44 -31z"/>
<path d="M3090 3528 c-24 -21 -28 -26 -11 -18 20 10 25 10 33 -4 13 -22 35
-20 43 4 6 19 -9 51 -24 50 -3 -1 -22 -15 -41 -32z"/>
<path d="M2732 3500 c-87 -29 -123 -50 -86 -50 35 0 204 55 201 65 -6 17 -30
14 -115 -15z"/>
<path d="M3186 3505 c-3 -9 -6 -22 -5 -28 0 -7 5 -1 10 12 5 13 8 26 5 28 -2
2 -6 -3 -10 -12z"/>
<path d="M3537 3513 c-21 -21 -3 -43 59 -73 37 -17 99 -53 138 -79 39 -26 112
-69 161 -96 50 -26 124 -76 165 -109 66 -53 157 -112 259 -168 21 -12 31 -25
31 -41 0 -13 9 -32 20 -42 17 -15 27 -17 58 -9 35 8 37 12 40 51 3 39 1 44
-38 69 -35 23 -45 26 -61 16 -16 -10 -21 -10 -25 2 -3 9 -36 34 -72 57 -37 23
-106 75 -154 114 -48 39 -115 87 -148 106 -34 19 -98 56 -143 83 -134 81 -200
113 -243 120 -22 3 -44 3 -47 -1z"/>
<path d="M2946 3499 c-22 -5 -103 -29 -180 -54 -78 -24 -205 -62 -283 -84
-172 -49 -331 -113 -390 -158 -27 -21 -43 -28 -43 -19 0 21 -27 38 -48 32 -42
-14 -55 -97 -23 -137 16 -20 23 -22 38 -13 10 6 22 25 27 43 5 17 15 31 22 31
12 0 96 32 222 85 34 14 158 55 275 90 229 69 434 140 454 157 7 6 13 17 13
24 0 16 -26 17 -84 3z"/>
<path d="M3047 3428 c-20 -53 -32 -108 -23 -108 10 0 56 107 56 130 0 33 -16
22 -33 -22z"/>
<path d="M3115 3460 c-13 -22 -18 -207 -5 -244 14 -44 1 -113 -36 -187 -22
-45 -104 -361 -104 -404 0 -12 -9 -34 -21 -49 -30 -38 -23 -95 13 -116 21 -11
32 -12 45 -4 22 13 29 65 13 94 -9 17 -3 51 29 173 53 197 74 270 99 337 16
45 21 87 24 227 2 94 1 170 -3 167 -4 -2 -10 0 -14 6 -8 13 -32 13 -40 0z"/>
<path d="M3223 3435 c-3 -9 -3 -28 0 -43 62 -292 80 -393 92 -532 16 -170 39
-286 74 -381 12 -30 21 -70 21 -90 0 -73 60 -81 72 -10 8 47 -3 81 -27 81 -8
0 -15 2 -15 4 0 2 -12 59 -26 127 -14 68 -32 192 -39 274 -19 194 -68 439
-105 521 -30 67 -37 74 -47 49z"/>
<path d="M2947 3373 c-4 -3 -7 -20 -7 -36 0 -39 -75 -269 -145 -445 -31 -79
-59 -158 -62 -177 -3 -20 -12 -35 -23 -38 -27 -7 -53 -52 -45 -77 8 -26 69
-54 101 -46 29 8 38 38 23 79 -14 39 -4 74 67 249 63 153 134 388 134 440 0
48 -21 73 -43 51z"/>
</g>
</svg>
